<?xml version="1.0" encoding="UTF-8"?>
<svg width="14px" height="14px" viewBox="0 0 14 14" version="1.1" xmlns="http://www.w3.org/2000/svg" xmlns:xlink="http://www.w3.org/1999/xlink">
    <!-- Generator: Sketch 48.1 (47250) - http://www.bohemiancoding.com/sketch -->
    <title>Shape</title>
    <desc>Created with Sketch.</desc>
    <defs></defs>
    <g id="新用户注册_Step5_选择套餐（非先锋城市）" stroke="none" stroke-width="1" fill="none" fill-rule="evenodd" transform="translate(-522.000000, -532.000000)" fill-opacity="0.65">
        <g id="登录卡片" transform="translate(127.000000, 110.000000)" fill="#000000">
            <g id="选择器-Select-带标题的选择框-Copy-5" transform="translate(117.000000, 163.000000)">
                <g id="Group-6" transform="translate(189.000000, 256.000000)">
                    <path d="M96,17 C92.1335938,17 89,13.8664062 89,10 C89,6.13359375 92.1335938,3 96,3 C99.8664062,3 103,6.13359375 103,10 C103,13.8664062 99.8664062,17 96,17 L96,17 Z M100.242273,5.75772727 C99.6913636,5.20681818 99.0490909,4.77318182 98.3345455,4.47181818 C97.5954545,4.15818182 96.81,4 96,4 C95.19,4 94.4045455,4.15818182 93.6654545,4.47045455 C92.9509091,4.77318182 92.31,5.20545455 91.7577273,5.75636364 C91.2068182,6.30727273 90.7731818,6.94954545 90.4718182,7.66409091 C90.1581818,8.40454545 90,9.19 90,10 C90,10.81 90.1581818,11.5954545 90.4704545,12.3345455 C90.7731818,13.0490909 91.2054545,13.69 91.7563636,14.2422727 C92.3072727,14.7931818 92.9495455,15.2268182 93.6640909,15.5281818 C94.4045455,15.8418182 95.19,16 96,16 C96.81,16 97.5954545,15.8418182 98.3345455,15.5295455 C99.0490909,15.2268182 99.69,14.7945455 100.242273,14.2436364 C100.793182,13.6927273 101.226818,13.0504545 101.528182,12.3359091 C101.841818,11.5954545 102,10.81 102,10 C102,9.19 101.841818,8.40454545 101.529545,7.66545455 C101.226818,6.95090909 100.794545,6.30863636 100.242273,5.75772727 L100.242273,5.75772727 Z M97.5419847,6.94302554 L96.4580153,6.94302554 L96.4580153,11.5284872 C96.4580153,11.789129 96.2531807,12 96,12 L96,12 L95.5419847,12 L94.778626,12 C94.5254453,12 94.3206107,11.789129 94.3206107,11.5284872 L94.3206107,11.5284872 C94.3206107,11.2678454 94.5254453,11.0569745 94.778626,11.0569745 L95.5419847,11.0569745 L95.5419847,6.94302554 L94.4580153,6.94302554 C94.2048346,6.94302554 94,6.73215455 94,6.47151277 L94,6.47151277 C94,6.21087099 94.2048346,6 94.4580153,6 L95.5419847,6 L96.4580153,6 L97.5419847,6 C97.7951654,6 98,6.21087099 98,6.47151277 L98,6.47151277 C98,6.73215455 97.7951654,6.94302554 97.5419847,6.94302554 L97.5419847,6.94302554 Z M95,13.5 C95,13.7761424 95.2238576,14 95.5,14 C95.7761424,14 96,13.7761424 96,13.5 C96,13.2238576 95.7761424,13 95.5,13 C95.2238576,13 95,13.2238576 95,13.5 L95,13.5 Z" id="Shape" transform="translate(96.000000, 10.000000) scale(1, -1) translate(-96.000000, -10.000000) "></path>
                </g>
            </g>
        </g>
    </g>
</svg>