<?xml version="1.0" encoding="UTF-8"?>
<svg width="20px" height="20px" viewBox="0 0 20 20" version="1.1" xmlns="http://www.w3.org/2000/svg" xmlns:xlink="http://www.w3.org/1999/xlink">
    <!-- Generator: Sketch 48.1 (47250) - http://www.bohemiancoding.com/sketch -->
    <title>默认头像</title>
    <desc>Created with Sketch.</desc>
    <defs></defs>
    <g id="新增_系统设置" stroke="none" stroke-width="1" fill="none" fill-rule="evenodd" transform="translate(-1261.000000, -22.000000)">
        <g id="顶部栏" fill="#00BF00">
            <g id="用户名" transform="translate(1261.000000, 22.000000)">
                <g id="默认头像">
                    <path d="M10,0 C15.5226667,0 20,4.47733333 20,10 C20,15.5226667 15.5226667,20 10,20 C4.47733333,20 0,15.5226667 0,10 C0,4.47733333 4.47733333,0 10,0" id="Fill-1" fill-opacity="0.0791723279"></path>
                    <path d="M11.8780414,15.2343969 L11.5804424,15.2343969 L11.1104222,15.2380952 L4.76325295,15.2380952 L4.76325295,14.939871 C4.76325295,14.939871 4.62531598,13.2833309 7.1399068,12.8593615 C7.1399068,12.8593615 9.05447183,12.60888 9.18792584,12.0981667 C9.18792584,12.0981667 9.26137727,12.0413461 9.20689217,11.4482597 C9.09205965,10.1857656 8.24167828,9.59133437 7.89683588,9.10852707 C7.6847578,8.79786276 7.55613158,8.4401281 7.52337155,8.06860856 C7.52406124,7.95496728 7.58440866,7.84939521 7.68303359,7.78887619 C7.77510651,7.69439928 7.79959032,7.55554174 7.74613975,7.43618479 C7.65475651,6.87134059 7.6506184,6.29640989 7.73407026,5.73055705 C7.78717599,5.33617476 7.984081,4.97339685 8.28926653,4.70946668 C8.39444347,4.62911086 8.48651639,4.5336253 8.56169203,4.42637214 C8.58238258,4.39611263 8.59893501,4.36349961 8.61031481,4.32886928 C8.65100622,4.19841716 8.51444862,4.1029316 8.54134633,3.96407407 C8.63100536,3.85177766 8.77790822,3.79831919 8.92067298,3.82622519 C9.2217204,3.80571596 9.5234575,3.80403488 9.82450492,3.82151815 C12.0728774,3.98962654 12.8118747,4.79150357 12.8118747,4.79150357 C12.9832613,4.99861311 13.1060252,5.23934433 13.1715453,5.49755881 C13.1932704,5.57388002 13.209478,5.6515461 13.2201681,5.72988461 C13.2818949,6.12460312 13.2977576,6.52470109 13.2677563,6.92278176 C13.2574111,7.11106316 13.2336169,7.2963186 13.2067192,7.4825827 C13.1843045,7.57537853 13.2063744,7.67321762 13.2660321,7.74853018 C13.3291383,7.8029973 13.3794853,7.86990444 13.4139695,7.94488078 C13.4256942,7.98556301 13.4315565,8.02759011 13.4301771,8.06995342 C13.3970722,8.44147297 13.2687909,8.79920762 13.0567128,9.10987193 C12.7118704,9.59267923 11.8604545,10.1857656 11.7463116,11.4496045 C11.6925162,12.0426909 11.7659677,12.0995116 11.7659677,12.0995116 C11.8994217,12.6102249 13.8136419,12.8607064 13.8136419,12.8607064 C16.3551304,13.3186336 16.1882267,14.939871 16.1882267,14.939871 L16.1882267,15.2364142 L14.5147065,15.2364142 L14.7781661,15.2327158 L11.8780414,15.2327158 L11.8780414,15.2343969 Z" id="Fill-3"></path>
                </g>
            </g>
        </g>
    </g>
</svg>