<?xml version="1.0" encoding="utf-8"?>
<!-- Generator: Adobe Illustrator 21.1.0, SVG Export Plug-In . SVG Version: 6.00 Build 0)  -->
<svg version="1.1" id="图层_1" xmlns="http://www.w3.org/2000/svg" xmlns:xlink="http://www.w3.org/1999/xlink" x="0px" y="0px"
	 viewBox="0 0 350 410" style="enable-background:new 0 0 350 410;" xml:space="preserve">
<style type="text/css">
	.st0{fill:#17A95C;}
	.st1{enable-background:new    ;}
	.st2{fill:#FFFFFF;}
	.st3{fill:#FFE97B;}
	.st4{fill:url(#SVGID_1_);}
	.st5{fill:url(#SVGID_2_);}
	.st6{fill:#E4E9F6;}
	.st7{fill:#F9F9FE;}
	.st8{fill:url(#Combined-Shape-2_1_);}
	.st9{fill:none;stroke:#000000;stroke-width:0.66;}
	.st10{fill:#C9D4DA;}
	.st11{opacity:0.2;fill:#B7EA65;enable-background:new    ;}
	.st12{fill:url(#SVGID_3_);}
	.st13{fill:url(#SVGID_4_);}
	.st14{fill:url(#SVGID_5_);}
	.st15{fill:#B7EA65;}
	.st16{fill:#ADDE60;}
	.st17{fill:url(#SVGID_6_);}
	.st18{fill:url(#SVGID_7_);}
	.st19{fill:url(#SVGID_8_);}
	.st20{fill:url(#SVGID_9_);}
	.st21{fill:url(#SVGID_10_);}
	.st22{fill:url(#SVGID_11_);}
	.st23{fill:url(#SVGID_12_);}
	.st24{fill:url(#SVGID_13_);}
	.st25{fill:url(#SVGID_14_);}
	.st26{fill:url(#SVGID_15_);}
	.st27{fill:url(#SVGID_16_);}
	.st28{fill:url(#SVGID_17_);}
	.st29{fill:url(#SVGID_18_);}
	.st30{fill:url(#SVGID_19_);}
	.st31{fill:url(#SVGID_20_);}
	.st32{fill:url(#SVGID_21_);}
	.st33{fill:url(#SVGID_22_);}
	.st34{fill:url(#SVGID_23_);}
	.st35{fill:url(#SVGID_24_);}
	.st36{fill:url(#SVGID_25_);}
	.st37{fill:url(#SVGID_26_);}
	.st38{fill:url(#SVGID_27_);}
	.st39{fill:url(#SVGID_28_);}
	.st40{fill:url(#SVGID_29_);}
	.st41{fill:url(#SVGID_30_);}
	.st42{fill:url(#SVGID_31_);}
	.st43{fill:url(#SVGID_32_);}
	.st44{fill:url(#SVGID_33_);}
	.st45{fill:url(#SVGID_34_);}
	.st46{fill:url(#SVGID_35_);}
	.st47{fill:url(#SVGID_36_);}
	.st48{fill:url(#SVGID_37_);}
	.st49{fill:url(#SVGID_38_);}
	.st50{fill:url(#SVGID_39_);}
	.st51{fill:url(#SVGID_40_);}
	.st52{fill:url(#SVGID_41_);}
	.st53{fill:url(#SVGID_42_);}
	.st54{fill:url(#SVGID_43_);}
	.st55{fill:url(#SVGID_44_);}
	.st56{fill:url(#SVGID_45_);}
	.st57{fill:url(#SVGID_46_);}
	.st58{fill:url(#SVGID_47_);}
	.st59{fill:url(#SVGID_48_);}
	.st60{fill:url(#SVGID_49_);}
	.st61{fill:url(#SVGID_50_);}
</style>
<title>未标题-1</title>
<rect y="0" class="st0" width="350" height="410"/>
<g class="st1">
	<path class="st2" d="M39.4,65.7v2.7h-1.6V51.5h9.4v-4.2h1.5v4.2h9.5v14.3h-9.5v4.2c0,1.5,0.7,2.2,2,2.2h6.9c0.8,0,1.4-0.2,1.8-0.5
		c0.4-0.4,0.6-1.6,0.7-3.8l1.5,0.5c-0.2,2.5-0.5,4-1,4.5c-0.5,0.5-1.4,0.7-2.7,0.7h-7.5c-2.2,0-3.2-1.2-3.2-3.5v-4.4H39.4z M39.4,53
		v4.8h7.8V53H39.4z M39.4,64.2h7.8v-4.9h-7.8V64.2z M56.7,53h-8v4.8h8V53z M56.7,64.2v-4.9h-8v4.9H56.7z"/>
	<path class="st2" d="M77.5,60.1v-4.5c2.6-1.5,5.1-3.3,7.5-5.4H68v-1.5h19.2v1.5c-2.4,2.2-5.1,4.3-8.2,6.3v3.6h11.3v1.6H79v9.7
		c0,1.6-0.8,2.5-2.5,2.5h-4.9l-0.4-1.5c1.4,0,3,0,4.7,0c1.1,0,1.6-0.5,1.6-1.5v-9.2H65v-1.6H77.5z"/>
	<path class="st2" d="M98.2,48.1l1.6,0.2L98,54.4h5.7c0.6-2.4,1.1-4.8,1.5-7.5l1.6,0.2c-0.4,2.6-0.9,5-1.5,7.3h13.9v1.5h-14.3
		c-0.4,1.4-0.8,2.6-1.3,3.9h12.1v1.4c-0.8,2.6-2.5,5-5.1,7.2c2.5,1.6,5.5,3,9.1,4.2L119,74c-3.9-1.4-7.1-3-9.6-4.7
		c-2.5,1.8-5.5,3.4-9.2,4.8l-0.8-1.5c3.5-1.3,6.4-2.7,8.7-4.3c-2.6-2-4.3-4.1-5.3-6.4c-2.2,4.9-4.9,8.7-8.4,11.6l-0.8-1.5
		c4.4-3.9,7.7-9.2,9.8-16.1h-7.4L98.2,48.1z M109.4,67.4c2.4-1.9,4-3.9,4.8-6.2H104C105,63.5,106.8,65.5,109.4,67.4z M117,52.3
		l-1.1,1.1c-1.3-1.6-3-3.3-5.3-5.1l1.1-1C113.8,49,115.6,50.6,117,52.3z"/>
	<path class="st2" d="M149,48.5v1.4h-9v2.7h6.8v6.3h-21.4v-6.3h6.8v-2.7h-9v-1.4H149z M148.5,65.4v1.4h-11.4v5
		c0,1.4-0.8,2.2-2.4,2.2h-2.6l-0.3-1.4c0.8,0.1,1.6,0.1,2.4,0.1c0.9,0,1.4-0.4,1.4-1.2v-4.7h-12v-1.4H148.5z M131.9,69.1
		c-2,1.8-4.4,3.3-7.3,4.6l-1-1.2c2.9-1.2,5.3-2.7,7.2-4.3L131.9,69.1z M145.8,61.4v1.4h-19.3v-1.4H145.8z M132.2,54h-5.3v3.5h5.3V54
		z M138.5,49.9h-4.9v2.7h4.9V49.9z M138.5,54h-4.9v3.5h4.9V54z M145.3,54h-5.2v3.5h5.2V54z M148.7,72.6l-1.1,1.1
		c-1.7-1.4-3.9-3-6.8-4.6l1.1-1C144.6,69.6,146.9,71.1,148.7,72.6z"/>
	<path class="st3" d="M176.6,49.1v1.6h-5V59h6.6v1.6h-6.6v13.3H170V60.6h-9c-0.2,3.1-0.8,5.7-1.7,7.7c-1.1,2.4-2.9,4.3-5.5,5.7
		l-0.9-1.4c2.4-1.4,4.1-3.2,5.1-5.6c0.7-1.8,1.1-3.9,1.3-6.5h-7V59h7.1c0-0.5,0-0.9,0-1.3v-7.1h-5.5v-1.6H176.6z M161.2,57.7
		c0,0.4,0,0.9,0,1.3h8.9v-8.4h-8.9V57.7z"/>
	<path class="st3" d="M203,66.5h4.4V68h-25.8v-1.5h4.4V48.5H203V66.5z M191.5,69.4c-2.2,1.8-5,3.4-8.2,4.7l-0.9-1.3
		c3.2-1.3,5.8-2.8,8-4.5L191.5,69.4z M201.4,53.1V50h-13.9v3.2H201.4z M201.4,57.6v-3.1h-13.9v3.1H201.4z M201.4,62v-3.1h-13.9V62
		H201.4z M201.4,66.5v-3.2h-13.9v3.2H201.4z M206.6,72.7l-0.9,1.4c-2.7-1.9-5.5-3.4-8.3-4.6l0.8-1.2C201.3,69.5,204.1,71,206.6,72.7
		z"/>
</g>
<g class="st1">
	<path class="st2" d="M40.9,93.1v-2.9h1.6v2.9h11.8v-2.9h1.6v2.9h5v1.5h-5v14h5.6v1.5h-26v-1.5h5.5v-14h-5v-1.5H40.9z M45.9,112.2
		c-2.5,1.9-5.5,3.5-9,4.9l-1-1.3c3.5-1.4,6.5-2.9,8.9-4.7L45.9,112.2z M54.3,98.3v-3.7H42.5v3.7H54.3z M54.3,103.4v-3.7H42.5v3.7
		H54.3z M54.3,108.6v-3.8H42.5v3.8H54.3z M61,115.8l-0.9,1.4c-2.9-2-5.9-3.6-9-4.8l0.8-1.2C55.3,112.4,58.3,114,61,115.8z"/>
	<path class="st2" d="M77.8,111.3c-2.4,2.5-6.3,4.5-11.7,6l-0.9-1.4c5.4-1.4,9.3-3.4,11.6-5.8c0.5-0.6,0.9-1.2,1.3-1.8H65.4v-1.5
		h13.4c0.8-1.9,1.2-4,1.3-6.4v-3.4h1.5v3.4c-0.1,2.4-0.4,4.6-1.1,6.4h9.5v1.5H79.8c-0.3,0.6-0.7,1.3-1.1,1.8
		c4.2,1.6,8.1,3.6,11.6,5.9l-0.9,1.4C85.7,114.8,81.8,112.8,77.8,111.3L77.8,111.3z M89.3,98.9h-1.6V95H67.5v3.9H66v-5.4h11.2
		c-0.4-1.1-0.8-2.1-1.3-3l1.6-0.3c0.5,1,0.9,2.1,1.3,3.3h10.5V98.9z M75,104.4l-0.8,1.3c-1.9-1.5-3.9-2.6-5.9-3.4l0.8-1.2
		C71.2,101.9,73.2,103.1,75,104.4z M77.8,100.3l-0.8,1.3c-2-1.6-4.1-2.8-6.3-3.7l0.8-1.2C73.8,97.7,75.9,98.9,77.8,100.3z"/>
	<path class="st2" d="M119.9,92.3v1.6h-4v20.4c0,1.8-0.9,2.7-2.7,2.7h-4.8l-0.4-1.5c1.6,0.1,3.2,0.1,4.6,0.1c1.1,0,1.6-0.6,1.6-1.7
		v-20H94v-1.6H119.9z M108.4,109.3H99v2.7h-1.5V98.8h10.9V109.3z M106.9,107.8v-7.5H99v7.5H106.9z"/>
	<path class="st2" d="M124.9,112.1c0.5-0.3,0.7-0.7,0.7-1.3V91.4h1.6v19.8c2.4-0.9,4.8-2.1,7.1-3.6l0.5,1.6
		c-2.9,1.7-6.1,3.2-9.4,4.4L124.9,112.1z M138.5,101.7l-1.3,0.9c-1.5-2.5-3.6-5.2-6.3-8.2l1.3-0.9C134.9,96.7,137,99.4,138.5,101.7z
		 M133,117l-1.1-1.3c5.1-2.9,8.4-6.5,10.1-11c1.3-3.8,1.9-8.5,1.9-14.3h1.6c0,5.6-0.6,10.3-1.8,14.1c-0.2,0.5-0.4,1.1-0.6,1.5
		c2.5,3.2,4.5,6.3,6.2,9.5l-1.2,1.2c-1.5-2.9-3.4-5.9-5.7-9.2C140.5,111.3,137.3,114.4,133,117z"/>
</g>
<g class="st1">
	<path class="st3" d="M159.5,90.9c-1.5,3.2-3.9,6.1-7.1,8.5l-0.5-1.6c2.9-2.2,4.9-4.8,6.2-7.6L159.5,90.9z M160.4,98.5
		c-0.7,1.5-1.6,2.9-2.6,4.2v14.6h-1.6v-12.8c-1.1,1.1-2.2,2.1-3.5,3l-0.5-1.5c3.2-2.4,5.4-5.1,6.8-8.1L160.4,98.5z M163.6,103.7
		v10.9c2-0.5,4.1-1.3,6.1-2.1l0.4,1.5c-2.2,0.9-5,1.8-8.3,2.7l-0.4-1.4c0.4-0.1,0.7-0.4,0.7-0.7V91.7h13.6v12h-6
		c0.4,2.1,1.2,3.9,2.3,5.6c1.8-0.9,3.4-2.2,5-3.9l1,1c-1.5,1.8-3.3,3.1-5.2,4.1c1.5,1.9,3.4,3.6,5.9,5l-0.8,1.4
		c-5.3-3.2-8.4-7.5-9.6-13.1H163.6z M174.2,93.3h-10.5V97h10.5V93.3z M163.6,102.3h10.5v-3.8h-10.5V102.3z"/>
	<path class="st3" d="M182.9,97.8l-1.3-0.9c1.8-1.9,3.1-4.2,4-6.7l1.5,0.3c-0.3,0.7-0.5,1.4-0.8,2h8.1v1.4h-4.8
		c0.8,1.2,1.5,2.2,1.9,3.2l-1.4,0.5c-0.6-1.3-1.3-2.5-2.2-3.7h-2.4C184.8,95.4,183.9,96.7,182.9,97.8z M185.2,101.6v15.7h-1.6v-15.7
		H185.2z M189.8,100.9l-1.2,0.9c-0.9-1.1-2.1-2.3-3.6-3.6l1.2-0.7C187.7,98.7,188.9,99.9,189.8,100.9z M199.7,103.1v10.8h-10.2
		v-10.8H199.7z M198.2,107.8v-3.3H191v3.3H198.2z M198.2,109.1H191v3.4h7.2V109.1z M200.3,117.2l-0.4-1.5l2.9,0.1
		c0.8,0,1.2-0.4,1.2-1.3V100h-11.7v-1.5h13.2v16.3c0,1.5-0.8,2.3-2.5,2.3H200.3z M195.9,97.2l-1.3-0.9c1.5-1.8,2.5-3.8,3.2-6.1
		l1.5,0.3c-0.2,0.7-0.5,1.4-0.7,2h8.9v1.4h-5.3c0.8,1.1,1.4,2.1,1.9,3l-1.4,0.5c-0.6-1.2-1.3-2.4-2.2-3.5h-2.5
		C197.3,95.2,196.7,96.3,195.9,97.2z"/>
	<path class="st3" d="M226.3,95.1c1-1.5,1.8-3.1,2.6-4.9l1.5,0.5c-0.8,1.6-1.6,3.1-2.5,4.3h5.8v11.8h-9.3v3.2h12.1v1.5h-12.1v5.8
		H223v-5.8h-12.1V110H223v-3.2h-9.3V95.1H226.3z M223,100.2v-3.7h-7.7v3.7H223z M223,101.6h-7.7v3.7h7.7V101.6z M221.2,94.1
		l-1.3,0.7c-0.9-1.4-1.8-2.7-2.7-3.8l1.3-0.6C219.5,91.5,220.4,92.8,221.2,94.1z M224.5,100.2h7.7v-3.7h-7.7V100.2z M232.2,101.6
		h-7.7v3.7h7.7V101.6z"/>
</g>
<g>
	
		<linearGradient id="SVGID_1_" gradientUnits="userSpaceOnUse" x1="207.33" y1="27.1204" x2="352.7574" y2="112.2591" gradientTransform="matrix(1 0 0 -1 0 409.28)">
		<stop  offset="0" style="stop-color:#17A058;stop-opacity:0"/>
		<stop  offset="1" style="stop-color:#008F58;stop-opacity:0.88"/>
	</linearGradient>
	<polygon class="st4" points="283.9,325.2 214,365.4 235.7,377.7 305.5,337.6 	"/>
	
		<linearGradient id="SVGID_2_" gradientUnits="userSpaceOnUse" x1="-22.4886" y1="3.9792" x2="151.6528" y2="105.9225" gradientTransform="matrix(1 0 0 -1 0 409.28)">
		<stop  offset="0" style="stop-color:#17A058;stop-opacity:0"/>
		<stop  offset="1" style="stop-color:#008F58;stop-opacity:0.88"/>
	</linearGradient>
	<polygon class="st5" points="31.9,331.5 0,349.9 0,384.9 0,410 40.2,410 106.8,371.9 	"/>
	<path class="st2" d="M100.7,371.2c2.1,1.3,4.9,1.4,8.5-0.8l40.9-23.8l-69.2-40L40,330.4c-3.3,2-6,2.1-8,1.1"/>
	<path class="st6" d="M269.7,318.9l-141.6-82.2c-8.1-4.7-18.1-4.7-26.2-0.1L49,267c-9,6.1-6.9,17.1,0,21.2l102,59l36.7,21.2
		c9.4,5.4,20.9,5.4,30.3,0.1c0,0,31.1-17.4,39.6-22.6c7.9-4.8,11.7-7.4,13.7-9.7C274.3,332.9,277.9,324.3,269.7,318.9z"/>
	<path class="st2" d="M269.7,318.9l-141.6-82.2c-8.1-4.7-18.1-4.7-26.2-0.1L49,267c-4,2.3-5.4,7.4-3.1,11.4c0.7,1.3,1.8,2.3,3.1,3.1
		l138.7,80.2c9.4,5.4,20.9,5.4,30.3,0.1c0,0,31.1-17.4,39.6-22.6c7.9-4.8,11.7-7.4,13.7-9.7c2.5-2.8,2.3-7.1-0.5-9.6
		C270.5,319.5,270.1,319.2,269.7,318.9z"/>
	<path id="Combined-Shape" class="st7" d="M187.1,354L64,282.6l67.7-38.8l123.1,71.3L187.1,354z"/>
	
		<linearGradient id="Combined-Shape-2_1_" gradientUnits="userSpaceOnUse" x1="206.085" y1="194.988" x2="135.5157" y2="67.0653" gradientTransform="matrix(1 0 0 -1 0 409.28)">
		<stop  offset="0" style="stop-color:#FFFFFF;stop-opacity:0"/>
		<stop  offset="1" style="stop-color:#B7EA65;stop-opacity:0.3"/>
	</linearGradient>
	<path id="Combined-Shape-2" class="st8" d="M187.1,354L64,282.6l67.7-38.8l123.1,71.3L187.1,354z"/>
	<path class="st9" d="M227.7,339.5c3.2-1.8,8.2-1.9,11.1-0.2c3,1.7,2.8,4.6-0.4,6.4c-3.2,1.8-8.2,1.9-11.1,0.2
		C224.3,344.2,224.5,341.3,227.7,339.5z"/>
	<path id="speaker" class="st10" d="M82.2,261.4l11.5-6.6c0.3-0.2,0.7-0.2,1.1,0l0,0c0.3,0.2,0.3,0.5,0,0.6L83.2,262
		c-0.3,0.2-0.7,0.2-1.1,0l0,0C81.8,261.9,81.8,261.6,82.2,261.4z"/>
	<path id="Oval-2" class="st10" d="M83,255.4c0.7-0.4,1.6-0.4,2.3,0c0.6,0.4,0.6,0.9-0.1,1.3c-0.7,0.4-1.6,0.4-2.3,0
		C82.3,256.3,82.4,255.7,83,255.4z"/>
	<polygon class="st11" points="211.2,284.8 159.8,314.4 188.4,331.2 239.8,301.6 	"/>
	
		<linearGradient id="SVGID_3_" gradientUnits="userSpaceOnUse" x1="110.9026" y1="234.7448" x2="22.1893" y2="151.6641" gradientTransform="matrix(1 0 0 -1 0 409.28)">
		<stop  offset="0" style="stop-color:#FFFFFF"/>
		<stop  offset="1" style="stop-color:#A6FFC8"/>
	</linearGradient>
	<polygon class="st12" points="75.2,201.4 24.8,230.3 45.5,242.4 95.9,213.5 	"/>
	
		<linearGradient id="SVGID_4_" gradientUnits="userSpaceOnUse" x1="210.9442" y1="121.3647" x2="362.2469" y2="209.9427" gradientTransform="matrix(1 0 0 -1 0 409.28)">
		<stop  offset="0" style="stop-color:#17A058;stop-opacity:0"/>
		<stop  offset="1" style="stop-color:#008F58;stop-opacity:0.88"/>
	</linearGradient>
	<polygon class="st13" points="286.1,227.5 216.2,267.6 244.9,284.4 314.8,244.3 	"/>
	<path class="st7" d="M98.8,369.6c-1.9-2.3-1.3-7.2,2.1-9.3l-69.2-40c-3.4,2.1-4,7-2.1,9.3c0.7,0.8,1.5,1.4,2.4,1.9l68.7,39.8
		C100,370.8,99.4,370.2,98.8,369.6z"/>
	
		<linearGradient id="SVGID_5_" gradientUnits="userSpaceOnUse" x1="287.5087" y1="92.8283" x2="323.414" y2="92.8283" gradientTransform="matrix(1 0 0 -1 0 409.28)">
		<stop  offset="0" style="stop-color:#FFFFFF"/>
		<stop  offset="1" style="stop-color:#A6CAFF"/>
	</linearGradient>
	<path class="st14" d="M319.7,312.2c3.2,1.9,3.7,4.9,3.7,7.3c0,6.4-4.6,11.4-4.6,11.4l-31.3-18.2l14.6-10.9L319.7,312.2"/>
	<path class="st2" d="M283.9,325l21.6,12.5c-2-1.1-3-2.6-3-7.1s3.1-12.5,9.3-16.5c3.8-2.6,6.5-2.2,7.9-1.7c0,0-20.7-12.2-21.6-12.5
		c-1.4-0.6-4.1-0.9-7.9,1.7c-6.1,4.1-9.3,12-9.3,16.6C280.9,322.5,282,323.9,283.9,325z"/>
	<polygon class="st15" points="229.6,261.3 159.8,301.5 188.4,318.2 258.3,278.1 	"/>
	<polygon class="st16" points="190.6,310.2 190,309.8 189.5,310.1 190.1,310.5 189.5,310.8 190.2,311.1 190.7,310.8 190.1,310.5 	
		"/>
	<polygon class="st16" points="188.8,309.8 188.3,310.1 188.9,310.4 189.5,310.1 	"/>
	<polygon class="st16" points="190.6,305.1 191.2,305.5 191.8,305.2 191.2,304.8 	"/>
	<polygon class="st16" points="188.4,310.7 187.8,311 188.4,311.4 189,311.1 189.5,310.8 188.9,310.4 	"/>
	<polygon class="st16" points="194.4,308 193.8,307.6 193.3,307.9 193.9,308.3 194.5,308.7 195.1,308.4 195.6,308 196.2,307.7 
		195.5,307.4 195,307.7 	"/>
	<polygon class="st16" points="197.8,306.8 198.3,306.5 197.7,306.1 197.2,306.4 	"/>
	<polygon class="st16" points="198.8,305.5 199.4,305.9 200,305.6 199.4,305.2 	"/>
	<polygon class="st16" points="186.5,295.3 187.1,295.6 187.7,295.3 188.2,295 188.8,294.7 188.1,294.3 187.5,294 186.9,293.6 
		186.3,293.9 185.8,294.2 185.2,294.5 185.9,294.9 	"/>
	<path class="st16" d="M184.2,295.2l1.9,1.1l0.6,0.4l0.6,0.4l0.5-0.3l0.5-0.3l0.5-0.3l0.5-0.3l0,0l0.5-0.3l0.5-0.3l0.5-0.3l-0.6-0.4
		l-0.6-0.4l-0.6-0.4L188,293l-0.6-0.4l-0.6-0.4l-0.5,0.3l-0.5,0.3l-0.5,0.3l0,0l-0.5,0.3l-0.5,0.3h0l-0.5,0.3l-0.5,0.3l0.6,0.4
		L184.2,295.2z M184.6,294.2l0.5-0.3l0.5-0.3l0,0l0.5-0.3l0.5-0.3l0.6,0.4l0.6,0.4l1.3,0.7l0.6,0.4l-0.5,0.3l-0.5,0.3l0,0l-0.5,0.3
		l-0.5,0.3h0l-0.5,0.3l-0.6-0.4l-0.6-0.4l-0.6-0.4l-0.6-0.4l-0.6-0.4L184.6,294.2z"/>
	<polygon class="st16" points="177.5,298.2 176.9,297.8 176.4,298.2 177,298.5 	"/>
	<polygon class="st16" points="194.1,305.3 193.5,304.9 192.9,304.6 192.3,304.9 191.8,305.2 192.4,305.6 193,305.9 193.7,306.3 
		193.1,306.6 193.7,307 194.3,306.6 194.8,306.3 195.5,306.7 194.9,307 195.5,307.4 196.1,307.1 196.7,307.4 197.3,307.1 
		196.6,306.8 196,306.4 196.6,306.1 195.9,305.7 195.3,305.4 194.7,305.7 	"/>
	<polygon class="st16" points="199.9,299.9 199.2,299.5 198.6,299.1 198.1,299.5 199.3,300.2 	"/>
	<polygon class="st16" points="177.1,299.9 177.7,299.5 177.1,299.2 176.5,299.5 	"/>
	<polygon class="st16" points="182.1,307.1 180.8,306.4 180.3,306.7 182.2,307.8 182.7,307.5 183.3,307.2 182.6,306.8 	"/>
	<polygon class="st16" points="177.6,303.2 178.2,303.6 178.7,303.3 178.1,302.9 	"/>
	<path class="st16" d="M176.9,302.9l0.5-0.3l1.1-0.6l0.5-0.3l-0.6-0.4l-0.6-0.4l0,0l-0.6-0.4l-0.6-0.4l-0.6-0.4l-0.6-0.4l-0.6-0.4
		l-0.5,0.3l-0.5,0.3l-0.5,0.3l-0.5,0.3l-1.1,0.6l-0.5,0.3l0.6,0.4l0.6,0.4l1.9,1.1l0.6,0.4l0.6,0.4l0.5-0.3l0.6-0.3L176.9,302.9z
		 M175.8,302.8l-0.5,0.3l-0.6-0.4l-1.3-0.7l-0.6-0.4l-0.6-0.4l0.5-0.3l1.1-0.6l0.5-0.3l0.5-0.3l0.6,0.4l0.6,0.4l0.6,0.4l1.3,0.7
		l-0.5,0.3l0,0l-0.5,0.3L175.8,302.8z"/>
	<polygon class="st16" points="176.4,298.8 175.8,298.5 175.3,298.8 175.9,299.1 	"/>
	<polygon class="st16" points="174.9,300.4 174.3,300.7 173.8,301 173.2,301.4 173.9,301.7 175.1,302.4 175.7,302.1 176.2,301.8 
		176.8,301.5 176.1,301.2 	"/>
	<polygon class="st16" points="187.1,300.6 186.5,300.3 185.9,299.9 185.4,300.2 186,300.6 186.6,301 186.1,301.3 185.5,301.6 
		186.1,301.9 186.8,302.3 187.3,302 186.7,301.6 187.2,301.3 187.8,301 188.3,300.7 187.7,300.3 	"/>
	<polygon class="st16" points="195.8,304.4 195.1,304 194.6,304.3 195.2,304.7 194.7,305 195.3,305.4 195.8,305 195.2,304.7 	"/>
	<polygon class="st16" points="181,297.7 180.3,297.3 179.8,297.6 179.2,297.3 178.5,296.9 178,297.2 178.6,297.6 179.2,297.9 
		179.8,297.6 180.4,298 179.9,298.3 180.5,298.7 181,298.4 180.4,298 	"/>
	<polygon class="st16" points="190.4,303.1 191,303.5 191.5,303.2 190.9,302.8 190.3,302.5 189.7,302.8 	"/>
	<polygon class="st16" points="199.3,304.5 198.7,304.2 198.1,304.5 197.5,304.1 196.9,304.4 196.4,304.7 195.8,305 196.5,305.4 
		197.1,305.8 197.7,306.1 198.3,305.8 197.6,305.5 197,305.1 197.6,304.8 198.2,305.2 198.7,304.8 199.4,305.2 199.9,304.9 	"/>
	<polygon class="st16" points="193.3,303.6 193.9,303.3 194.4,303 193.8,302.6 193.2,302.2 192.6,302.6 193.3,302.9 192.7,303.2 
		192.2,303.5 191.6,303.8 191.1,304.2 191.7,304.5 192.2,304.2 192.8,303.9 193.4,304.3 194,304.6 194.6,304.3 194,304 	"/>
	<polygon class="st16" points="197.4,303.4 196.8,303.1 196.1,302.7 195.6,303 195,303.3 195.7,303.7 196.2,303.4 196.8,303.8 
		197.5,304.1 198,303.8 	"/>
	<polygon class="st16" points="189.1,307.4 188.5,307.1 188,307.4 188.6,307.7 	"/>
	<polygon class="st16" points="189.9,304.1 190.5,304.5 191.1,304.2 190.4,303.8 	"/>
	<path class="st16" d="M189.8,303.4l-0.6-0.4l-0.5,0.3L188,303l-0.5,0.3l0.6,0.4l0.6,0.4l-0.5,0.3l-1.3-0.7l-0.5,0.3l-0.6-0.4
		l-0.5,0.3l0.6,0.4l0.5-0.3l0.6,0.4l-0.5,0.3l0.6,0.4l0.6,0.4l-0.5,0.3l-1.3-0.7l0.5-0.3l-0.6-0.4l-0.5,0.3l-0.5,0.3l0.6,0.4
		l-0.5,0.3l0.6,0.4l-0.5,0.3l0.6,0.4l0.5-0.3l0.5-0.3l0.6,0.4l-0.5,0.3l-0.5,0.3l-0.5,0.3l-1.3-0.7l0.5-0.3l-0.6-0.4l-0.5,0.3
		l-0.6-0.4l-0.5,0.3l-0.5,0.3l0.6,0.4l0.5-0.3l0.6,0.4l1.3,0.7l0.6,0.4l-0.5,0.3l0.6,0.4l0.5-0.3l0.6,0.4l0.5-0.3l0.6,0.4l-0.5,0.3
		l-0.6-0.4l-0.5,0.3l-0.5,0.3l-1.9-1.1l-0.5,0.3l0.6,0.4l1.3,0.7l0.6,0.4l0.6,0.4l0.6,0.4l0.5-0.3l-0.6-0.4l0.6-0.3l0.5-0.3l0.5-0.3
		l0.6,0.4l0.5-0.3l1.3,0.7l0.6,0.4l0.5-0.3l-0.6-0.4l0.5-0.3l0.6,0.4l0.5-0.3l0.5-0.3l-0.6-0.4l-0.6-0.4l-0.6-0.4l-0.5,0.3l0.6,0.4
		l0.6,0.4l-0.5,0.3l-0.6-0.4l-0.5,0.3l-0.6-0.4l0.5-0.3l-0.6-0.4l0.5-0.3l0.5-0.3l0.6,0.4l0.5-0.3l0.5-0.3l-0.6-0.4l-0.6-0.4
		l0.5-0.3l-0.6-0.4l-0.5,0.3l0.6,0.4l-0.5,0.3l-0.6-0.4l0.5-0.3l-0.6-0.4l-0.5,0.3l0.6,0.4l-0.5,0.3l-1.3-0.7l0.5-0.3l0.5-0.3
		l0.5-0.3l-0.6-0.4l-0.6,0.3l0,0l-0.5,0.3l-0.6-0.4l0.5-0.3l1.1-0.6l-0.6-0.4L189.8,303.4z M191.4,306.8l0.6,0.4l-0.5,0.3l-0.6-0.4
		L191.4,306.8z M188.4,306.4l1.3,0.7l0.6,0.4l-0.5,0.3l-0.5,0.3l-0.5,0.3L188,308l-0.6-0.4l-0.6-0.4l0.5-0.3l0.5-0.3L188.4,306.4z"
		/>
	<path class="st16" d="M184,303.8l-0.6-0.4l0.5-0.3l-0.6-0.4l0.5-0.3l-0.6-0.4l-0.6-0.4l-0.6-0.4l0.5-0.3l-0.6-0.4l0.5-0.3l0.6,0.4
		l-0.5,0.3l0.6,0.4l0.6,0.4l0.5-0.3l0.6,0.4l0.5-0.3l-1.3-0.7l0.5-0.3l-0.6-0.4l0.5-0.3l0.5-0.3l1.1-0.6l-0.6-0.3l-0.5,0.3l-0.6-0.4
		l-0.6-0.4l0.5-0.3l0.6,0.4l0.5-0.3l-0.6-0.4l0.5-0.3l0.6,0.4l0.6,0.4l0.5-0.3l-0.6-0.4l-0.6-0.4l-0.5,0.3l-0.6-0.4l-0.5,0.3
		l0.6,0.4l-0.5,0.3l-0.6-0.4l0.5-0.3l-0.6-0.4l0.5-0.3l0.5-0.3l-0.6-0.4l-0.5,0.3l-0.5,0.3l-0.5,0.3l0.6,0.4l-0.5,0.3l0.6,0.4
		l-0.5,0.3l0.6,0.4l1.3,0.7l-0.5,0.3l-0.5,0.3l0.6,0.4l-0.5,0.3l-1.3-0.7l-0.6-0.4l0.5-0.3l0.6,0.4l0.5-0.3l-0.6-0.4l-0.6-0.4
		l-0.6-0.4l-0.5,0.3l0.6,0.4l-0.5,0.3l0.6,0.4l-0.5,0.3l0.6,0.4l-0.5,0.3l-0.6-0.4l0.5-0.3l-1.3-0.7l-0.5,0.3l-0.6-0.4l0.5-0.3
		l-0.6-0.4l-0.5,0.3l-0.5,0.3l1.3,0.7l-0.5,0.3l-0.5,0.3l0.6,0.4l0.6,0.4l0.6,0.4l0.6,0.4l-0.5,0.3l-0.5,0.3l0.6,0.4l-0.5,0.3
		l-0.5,0.3l0.6,0.4l0.5-0.3l0.5-0.3l0.6,0.4l-0.5,0.3L180,304l-0.6-0.4l-0.5,0.3l-0.6-0.4l-0.5,0.3l-0.6-0.4l-0.5,0.3l-0.5,0.3
		l1.9,1.1l0.5-0.3l0.6,0.4l-0.5,0.3l0.6,0.4l0.6,0.4l0.5-0.3l-0.6-0.4l-0.6-0.4l0.5-0.3l0.5-0.3l0.5-0.3l0.5-0.3l0.6,0.4l0.6,0.4
		l-0.5,0.3l0.6,0.4l0.6,0.4l0.5-0.3l0.5-0.3l-0.6-0.4l-0.5,0.3l-0.6-0.4l0.5-0.3l0.6,0.3l0.5-0.3l0.5-0.3l0.5-0.3l-0.6-0.4
		L184,303.8z M177.7,304.6l-0.6-0.4l0.5-0.3l0.6,0.4L177.7,304.6z M180.2,301l-0.6-0.4l0.5-0.3l0.6,0.4l0.6,0.4l-0.5,0.3L180.2,301z
		 M181.5,302.4l-0.6-0.4l0.5-0.3l0.6,0.4L181.5,302.4z"/>
	<polygon class="st16" points="187.5,299 186.9,298.6 186.4,298.9 187,299.3 187.6,299.7 188.2,299.3 188.8,299.7 189.3,299.4 
		188.7,299 189.2,298.7 188.6,298.4 188.1,298.7 	"/>
	<polygon class="st16" points="201.3,301.9 200.7,301.6 199.6,302.2 199,302.5 199.7,302.9 200.3,303.2 200.9,303.6 201.5,303.3 
		202,303 202.6,302.7 201.9,302.3 	"/>
	<path class="st16" d="M189.8,298.4l0.5-0.3l0.6,0.4l-0.6,0.3l-0.5,0.3l0.6,0.4l0.5-0.3l0.5-0.3l0.6,0.4l-0.5,0.3l-0.5,0.3l-0.5,0.3
		l0.6,0.4l0.6,0.4l0.5-0.3l0.6,0.4l0.6,0.4l1.3,0.7l-0.5,0.3l0.6,0.4l0.5-0.3l0.5-0.3l0.5-0.3l-0.6-0.4l-0.5,0.3l-0.6-0.4l0.5-0.3
		l0.6,0.4l0.5-0.3l0.5-0.3l0.6,0.4l0.5-0.3l0.5-0.3l-0.6-0.4l-0.6-0.4l-0.5,0.3l-0.6-0.4l0.4-0.2l0.2-0.1l0,0l0.5-0.3l-0.6-0.4
		l-1.1,0.6l0,0l-0.6-0.4l0.4-0.2l0.2-0.1l0,0l0.5-0.3l0.6,0.4l0.5-0.3l-0.6-0.4l-0.6-0.4l-0.5,0.3l-0.6-0.4l-1.1,0.6l0.6,0.4l0,0
		l-0.6-0.4l-0.5,0.3l0.6,0.4l-0.5,0.3l-0.6-0.4l-0.6-0.4l-0.5,0.3l-0.6-0.4l0.5-0.3l-0.6-0.4l-0.5,0.3l-0.6-0.4l-0.5,0.3
		L189.8,298.4z M194.1,300.3l0.5-0.3l0.5-0.3l0.6,0.4l0.6,0.4l-0.5,0.3l-0.6-0.4l-0.5,0.3l-0.5,0.3l-0.6-0.4L194.1,300.3z
		 M192.8,299.6l0.6,0.4l-0.5,0.3l-0.6-0.4L192.8,299.6z"/>
	<path class="st16" d="M203.6,302.1l-1.9-1.1l-0.6-0.4l-0.6-0.4l-0.5,0.3l-0.5,0.3l-0.2,0.1l-0.4,0.2l0,0l-0.5,0.3l-0.5,0.3
		l-0.5,0.3l-0.5,0.3l0.6,0.4l0.6,0.4l1.3,0.7l0.6,0.4l0.6,0.4l0.6,0.4l0.5-0.3l0.5-0.3l0.5-0.3l0.5-0.3l0,0l0.5-0.3l0.5-0.3l0.5-0.3
		l-0.6-0.4L203.6,302.1z M203.2,303l-0.2,0.1l-0.4,0.2l0,0l-0.5,0.3l-0.5,0.3l-0.5,0.3l-0.6-0.4l-0.6-0.4l-0.6-0.4l-0.6-0.4
		l-0.6-0.4l0.5-0.3l0.5-0.3l0.5-0.3l0,0l0.5-0.3l0.5-0.3l0.6,0.4l1.9,1.1l0.6,0.4L203.2,303z"/>
	<polygon class="st16" points="193,295.9 192.4,295.5 191.8,295.8 192.4,296.2 	"/>
	<polygon class="st16" points="191.4,297.5 192.1,297.8 192.6,297.5 193.2,297.9 193.2,297.9 193.8,297.6 194.3,297.3 194.9,297 
		194.2,296.6 193.7,296.9 193.1,296.6 192.5,296.9 191.9,296.5 191.3,296.1 191.8,295.8 191.2,295.5 190.6,295.8 190.5,295.9 
		190.1,296.1 190.1,296.1 190.7,296.4 190.2,296.8 190.8,297.1 	"/>
	<polygon class="st16" points="180.7,305 180.1,305.3 180.8,305.7 181.4,306.1 181.9,305.8 181.3,305.4 181.9,305.1 181.2,304.7 	
		"/>
	<polygon class="st16" points="181.5,297.4 182.1,297.1 182.6,296.8 182,296.4 182.5,296.1 181.9,295.7 182.4,295.4 183.1,295.8 
		183.6,295.5 183,295.1 182.4,294.7 181.8,295 181.3,295.4 180.7,295.7 180.2,296 179.6,296.3 180.3,296.7 179.7,297 180.3,297.3 
		180.9,297 	"/>
	<polygon class="st16" points="191.4,301.8 192,302.2 192.5,301.9 191.9,301.5 191.4,301.8 190.1,301.1 189.5,300.7 190,300.4 
		189.4,300.1 188.9,300.4 188.3,300.7 188.9,301.1 189.6,301.4 189,301.7 188.4,301.4 187.9,301.7 188.5,302 189.1,302.4 
		189.7,302.1 190.3,302.5 190.8,302.1 	"/>
	<polygon class="st16" points="189.2,298.1 188.5,297.7 189.1,297.4 189.7,297.7 190.3,297.4 189.6,297.1 190.2,296.8 189.6,296.4 
		189,296.7 188.5,297 187.9,297.3 187.4,297.6 188.6,298.4 	"/>
	<polygon class="st16" points="185.6,302.2 185,302.6 184.5,302.9 185.1,303.2 185.7,302.9 186.3,303.3 186.8,303 186.2,302.6 	"/>
	<polygon class="st16" points="232.4,270.7 229.3,272.5 238.4,277.7 241.5,275.9 	"/>
	<polygon class="st16" points="214.2,276.3 232.6,287 234.7,285.8 216.4,275.1 	"/>
	<polygon class="st16" points="206.8,280.6 225.1,291.3 227.2,290.1 208.9,279.4 	"/>
	<polygon class="st16" points="199.3,284.9 209.5,290.8 211.6,289.6 201.4,283.7 	"/>
	
		<linearGradient id="SVGID_6_" gradientUnits="userSpaceOnUse" x1="308.0248" y1="254.1283" x2="223.1381" y2="132.305" gradientTransform="matrix(1 0 0 -1 0 409.28)">
		<stop  offset="0" style="stop-color:#FFFFFF"/>
		<stop  offset="1" style="stop-color:#F7FFA6"/>
	</linearGradient>
	<polygon class="st17" points="286.1,187.7 216.2,227.9 244.9,244.6 314.8,204.5 	"/>
	
		<linearGradient id="SVGID_7_" gradientUnits="userSpaceOnUse" x1="311.1176" y1="220.0763" x2="219.5482" y2="165.7143" gradientTransform="matrix(1 0 0 -1 0 409.28)">
		<stop  offset="0" style="stop-color:#FFFFFF"/>
		<stop  offset="1" style="stop-color:#D5DC8F"/>
	</linearGradient>
	<polygon class="st18" points="288.9,197.1 285.8,198.9 294.8,204.2 298,202.3 	"/>
	
		<linearGradient id="SVGID_8_" gradientUnits="userSpaceOnUse" x1="311.2712" y1="219.8203" x2="219.7018" y2="165.4583" gradientTransform="matrix(1 0 0 -1 0 409.28)">
		<stop  offset="0" style="stop-color:#FFFFFF"/>
		<stop  offset="1" style="stop-color:#D5DC8F"/>
	</linearGradient>
	<polygon class="st19" points="270.7,202.7 289.1,213.4 291.2,212.2 272.8,201.5 	"/>
	
		<linearGradient id="SVGID_9_" gradientUnits="userSpaceOnUse" x1="311.2065" y1="219.9264" x2="219.6372" y2="165.5644" gradientTransform="matrix(1 0 0 -1 0 409.28)">
		<stop  offset="0" style="stop-color:#FFFFFF"/>
		<stop  offset="1" style="stop-color:#D5DC8F"/>
	</linearGradient>
	<polygon class="st20" points="263.2,207 281.6,217.7 283.7,216.5 265.4,205.8 	"/>
	
		<linearGradient id="SVGID_10_" gradientUnits="userSpaceOnUse" x1="309.0355" y1="223.5868" x2="217.4662" y2="169.2202" gradientTransform="matrix(1 0 0 -1 0 409.28)">
		<stop  offset="0" style="stop-color:#FFFFFF"/>
		<stop  offset="1" style="stop-color:#D5DC8F"/>
	</linearGradient>
	<polygon class="st21" points="255.8,211.3 266,217.2 268.1,216 257.9,210.1 	"/>
	
		<linearGradient id="SVGID_11_" gradientUnits="userSpaceOnUse" x1="315.2188" y1="213.1662" x2="223.6494" y2="158.8042" gradientTransform="matrix(1 0 0 -1 0 409.28)">
		<stop  offset="0" style="stop-color:#FFFFFF"/>
		<stop  offset="1" style="stop-color:#D5DC8F"/>
	</linearGradient>
	<polygon class="st22" points="247.1,236.6 246.5,236.2 245.9,236.5 246.6,236.9 246,237.2 246.6,237.5 247.2,237.2 246.6,236.9 	
		"/>
	
		<linearGradient id="SVGID_12_" gradientUnits="userSpaceOnUse" x1="314.7349" y1="213.9852" x2="223.1655" y2="159.6232" gradientTransform="matrix(1 0 0 -1 0 409.28)">
		<stop  offset="0" style="stop-color:#FFFFFF"/>
		<stop  offset="1" style="stop-color:#D5DC8F"/>
	</linearGradient>
	<polygon class="st23" points="245.3,236.2 244.8,236.5 245.4,236.8 245.9,236.5 	"/>
	
		<linearGradient id="SVGID_13_" gradientUnits="userSpaceOnUse" x1="313.1805" y1="216.6038" x2="221.6112" y2="162.2371" gradientTransform="matrix(1 0 0 -1 0 409.28)">
		<stop  offset="0" style="stop-color:#FFFFFF"/>
		<stop  offset="1" style="stop-color:#D5DC8F"/>
	</linearGradient>
	<polygon class="st24" points="247.1,231.5 247.7,231.9 248.3,231.6 247.6,231.2 	"/>
	
		<linearGradient id="SVGID_14_" gradientUnits="userSpaceOnUse" x1="315.0467" y1="213.4593" x2="223.4773" y2="159.0973" gradientTransform="matrix(1 0 0 -1 0 409.28)">
		<stop  offset="0" style="stop-color:#FFFFFF"/>
		<stop  offset="1" style="stop-color:#D5DC8F"/>
	</linearGradient>
	<polygon class="st25" points="244.8,237.1 244.3,237.4 244.9,237.8 245.5,237.5 246,237.2 245.4,236.8 	"/>
	
		<linearGradient id="SVGID_15_" gradientUnits="userSpaceOnUse" x1="315.2713" y1="213.0803" x2="223.702" y2="158.7183" gradientTransform="matrix(1 0 0 -1 0 409.28)">
		<stop  offset="0" style="stop-color:#FFFFFF"/>
		<stop  offset="1" style="stop-color:#D5DC8F"/>
	</linearGradient>
	<polygon class="st26" points="250.9,234.4 250.3,234 249.8,234.3 250.4,234.7 251,235.1 251.5,234.8 252.1,234.4 252.6,234.1 
		252,233.8 251.5,234.1 	"/>
	
		<linearGradient id="SVGID_16_" gradientUnits="userSpaceOnUse" x1="315.4618" y1="212.7644" x2="223.8878" y2="158.3977" gradientTransform="matrix(1 0 0 -1 0 409.28)">
		<stop  offset="0" style="stop-color:#FFFFFF"/>
		<stop  offset="1" style="stop-color:#D5DC8F"/>
	</linearGradient>
	<polygon class="st27" points="254.3,233.2 254.8,232.9 254.2,232.5 253.6,232.8 	"/>
	
		<linearGradient id="SVGID_17_" gradientUnits="userSpaceOnUse" x1="315.4759" y1="212.7315" x2="223.9066" y2="158.3695" gradientTransform="matrix(1 0 0 -1 0 409.28)">
		<stop  offset="0" style="stop-color:#FFFFFF"/>
		<stop  offset="1" style="stop-color:#D5DC8F"/>
	</linearGradient>
	<polygon class="st28" points="255.3,231.9 255.9,232.3 256.5,232 255.8,231.6 	"/>
	
		<linearGradient id="SVGID_18_" gradientUnits="userSpaceOnUse" x1="307.4542" y1="226.2504" x2="215.8848" y2="171.8884" gradientTransform="matrix(1 0 0 -1 0 409.28)">
		<stop  offset="0" style="stop-color:#FFFFFF"/>
		<stop  offset="1" style="stop-color:#D5DC8F"/>
	</linearGradient>
	<polygon class="st29" points="243,221.7 243.6,222 244.1,221.7 244.7,221.4 245.2,221.1 244.6,220.7 244,220.4 243.4,220 
		242.8,220.3 242.3,220.6 241.7,220.9 242.3,221.3 	"/>
	
		<linearGradient id="SVGID_19_" gradientUnits="userSpaceOnUse" x1="307.4442" y1="226.2673" x2="215.8748" y2="171.9053" gradientTransform="matrix(1 0 0 -1 0 409.28)">
		<stop  offset="0" style="stop-color:#FFFFFF"/>
		<stop  offset="1" style="stop-color:#D5DC8F"/>
	</linearGradient>
	<path class="st30" d="M240.6,221.6l1.9,1.1l0.6,0.4l0.6,0.4l0.5-0.3l0.5-0.3l0.5-0.3l0.5-0.3l0,0l0.5-0.3l0.5-0.3l0.5-0.3l-0.6-0.4
		l-0.6-0.4l-0.6-0.4l-1.3-0.7l-0.6-0.4l-0.6-0.4l-0.5,0.3l-0.5,0.3l-0.5,0.3l0,0l-0.5,0.3l-0.5,0.3h0l-0.5,0.3l-0.5,0.3l0.6,0.4
		L240.6,221.6z M241.1,220.6l0.5-0.3l0.6-0.3l0,0l0.5-0.3l0.5-0.3l0.6,0.4l0.6,0.4l1.3,0.7l0.6,0.4l-0.5,0.3l-0.5,0.3l0,0l-0.5,0.3
		l-0.5,0.3h0l-0.5,0.3l-0.6-0.4l-0.6-0.4l-0.6-0.4l-0.6-0.4l-0.6-0.4L241.1,220.6z"/>
	
		<linearGradient id="SVGID_20_" gradientUnits="userSpaceOnUse" x1="306.3999" y1="228.0278" x2="214.8259" y2="173.6657" gradientTransform="matrix(1 0 0 -1 0 409.28)">
		<stop  offset="0" style="stop-color:#FFFFFF"/>
		<stop  offset="1" style="stop-color:#D5DC8F"/>
	</linearGradient>
	<polygon class="st31" points="234,224.6 233.4,224.2 232.8,224.6 233.5,224.9 	"/>
	
		<linearGradient id="SVGID_21_" gradientUnits="userSpaceOnUse" x1="314.4786" y1="214.4139" x2="222.9093" y2="160.0519" gradientTransform="matrix(1 0 0 -1 0 409.28)">
		<stop  offset="0" style="stop-color:#FFFFFF"/>
		<stop  offset="1" style="stop-color:#D5DC8F"/>
	</linearGradient>
	<polygon class="st32" points="250.6,231.7 250,231.3 249.3,231 248.8,231.3 248.3,231.6 248.9,232 249.5,232.3 250.1,232.7 
		249.6,233 250.2,233.4 250.8,233.1 251.3,232.7 251.9,233.1 251.4,233.4 252,233.8 252.6,233.5 253.2,233.8 253.7,233.5 
		253.1,233.2 252.5,232.8 253,232.5 252.4,232.1 251.8,231.8 251.2,232.1 	"/>
	
		<linearGradient id="SVGID_22_" gradientUnits="userSpaceOnUse" x1="312.7917" y1="217.2596" x2="221.2178" y2="162.8975" gradientTransform="matrix(1 0 0 -1 0 409.28)">
		<stop  offset="0" style="stop-color:#FFFFFF"/>
		<stop  offset="1" style="stop-color:#D5DC8F"/>
	</linearGradient>
	<polygon class="st33" points="256.3,226.3 255.7,225.9 255.1,225.5 254.5,225.9 255.8,226.6 	"/>
	
		<linearGradient id="SVGID_23_" gradientUnits="userSpaceOnUse" x1="307.0296" y1="226.9642" x2="215.4603" y2="172.6022" gradientTransform="matrix(1 0 0 -1 0 409.28)">
		<stop  offset="0" style="stop-color:#FFFFFF"/>
		<stop  offset="1" style="stop-color:#D5DC8F"/>
	</linearGradient>
	<polygon class="st34" points="233.6,226.3 234.2,225.9 233.5,225.6 233,225.9 	"/>
	
		<linearGradient id="SVGID_24_" gradientUnits="userSpaceOnUse" x1="311.5003" y1="219.4322" x2="219.931" y2="165.0702" gradientTransform="matrix(1 0 0 -1 0 409.28)">
		<stop  offset="0" style="stop-color:#FFFFFF"/>
		<stop  offset="1" style="stop-color:#D5DC8F"/>
	</linearGradient>
	<polygon class="st35" points="238.6,233.5 237.3,232.8 236.8,233.1 238.7,234.2 239.2,233.9 239.7,233.6 239.1,233.2 	"/>
	
		<linearGradient id="SVGID_25_" gradientUnits="userSpaceOnUse" x1="308.9348" y1="223.7516" x2="217.3654" y2="169.3896" gradientTransform="matrix(1 0 0 -1 0 409.28)">
		<stop  offset="0" style="stop-color:#FFFFFF"/>
		<stop  offset="1" style="stop-color:#D5DC8F"/>
	</linearGradient>
	<polygon class="st36" points="234,229.6 234.6,230 235.2,229.7 234.6,229.3 	"/>
	
		<linearGradient id="SVGID_26_" gradientUnits="userSpaceOnUse" x1="307.3224" y1="226.4668" x2="215.7531" y2="172.1048" gradientTransform="matrix(1 0 0 -1 0 409.28)">
		<stop  offset="0" style="stop-color:#FFFFFF"/>
		<stop  offset="1" style="stop-color:#D5DC8F"/>
	</linearGradient>
	<path class="st37" d="M233.4,229.3l0.5-0.3l1.1-0.6l0.5-0.3l-0.6-0.4l-0.6-0.4l0,0l-0.6-0.4l-0.6-0.4l-0.6-0.4l-0.6-0.4l-0.6-0.4
		l-0.5,0.3l-0.5,0.3l-0.5,0.3l-0.5,0.3l-1.1,0.6l-0.5,0.3l0.6,0.4l0.6,0.4l1.9,1.1l0.6,0.4l0.6,0.4l0.5-0.3l0.6-0.3L233.4,229.3z
		 M232.2,229.2l-0.5,0.3l-0.6-0.4l-1.3-0.7l-0.6-0.4l-0.6-0.4l0.5-0.3l1.1-0.6l0.5-0.3l0.5-0.3l0.6,0.4l0.6,0.4l0.6,0.4l1.3,0.7
		l-0.5,0.3l0,0l-0.5,0.3L232.2,229.2z"/>
	
		<linearGradient id="SVGID_27_" gradientUnits="userSpaceOnUse" x1="306.3852" y1="228.0475" x2="214.8159" y2="173.6855" gradientTransform="matrix(1 0 0 -1 0 409.28)">
		<stop  offset="0" style="stop-color:#FFFFFF"/>
		<stop  offset="1" style="stop-color:#D5DC8F"/>
	</linearGradient>
	<polygon class="st38" points="232.9,225.2 232.3,224.9 231.7,225.2 232.4,225.5 	"/>
	
		<linearGradient id="SVGID_28_" gradientUnits="userSpaceOnUse" x1="307.3241" y1="226.4687" x2="215.7547" y2="172.1067" gradientTransform="matrix(1 0 0 -1 0 409.28)">
		<stop  offset="0" style="stop-color:#FFFFFF"/>
		<stop  offset="1" style="stop-color:#D5DC8F"/>
	</linearGradient>
	<polygon class="st39" points="231.4,226.8 230.8,227.1 230.3,227.4 229.7,227.8 230.3,228.1 231.6,228.9 232.1,228.5 232.7,228.2 
		233.2,227.9 232.6,227.6 	"/>
	
		<linearGradient id="SVGID_29_" gradientUnits="userSpaceOnUse" x1="310.1284" y1="221.7421" x2="218.559" y2="167.3754" gradientTransform="matrix(1 0 0 -1 0 409.28)">
		<stop  offset="0" style="stop-color:#FFFFFF"/>
		<stop  offset="1" style="stop-color:#D5DC8F"/>
	</linearGradient>
	<polygon class="st40" points="243.6,227 243,226.7 242.4,226.3 241.8,226.6 242.4,227 243.1,227.4 242.5,227.7 242,228 
		242.6,228.3 243.2,228.7 243.8,228.4 243.2,228 243.7,227.7 244.2,227.4 244.8,227.1 244.2,226.7 	"/>
	
		<linearGradient id="SVGID_30_" gradientUnits="userSpaceOnUse" x1="314.0164" y1="215.1981" x2="222.4424" y2="160.8361" gradientTransform="matrix(1 0 0 -1 0 409.28)">
		<stop  offset="0" style="stop-color:#FFFFFF"/>
		<stop  offset="1" style="stop-color:#D5DC8F"/>
	</linearGradient>
	<polygon class="st41" points="252.2,230.8 251.6,230.4 251.1,230.7 251.7,231.1 251.1,231.4 251.8,231.8 252.3,231.4 251.7,231.1 	
		"/>
	
		<linearGradient id="SVGID_31_" gradientUnits="userSpaceOnUse" x1="306.8982" y1="227.1848" x2="215.3289" y2="172.8228" gradientTransform="matrix(1 0 0 -1 0 409.28)">
		<stop  offset="0" style="stop-color:#FFFFFF"/>
		<stop  offset="1" style="stop-color:#D5DC8F"/>
	</linearGradient>
	<polygon class="st42" points="237.4,224.1 236.8,223.7 236.3,224 235.6,223.7 235,223.3 234.5,223.6 235.1,224 235.7,224.3 
		236.3,224 236.9,224.4 236.3,224.7 237,225.1 237.5,224.8 236.9,224.4 	"/>
	
		<linearGradient id="SVGID_32_" gradientUnits="userSpaceOnUse" x1="312.0698" y1="218.4752" x2="220.5004" y2="164.1132" gradientTransform="matrix(1 0 0 -1 0 409.28)">
		<stop  offset="0" style="stop-color:#FFFFFF"/>
		<stop  offset="1" style="stop-color:#D5DC8F"/>
	</linearGradient>
	<polygon class="st43" points="246.8,229.5 247.5,229.9 248,229.6 247.4,229.2 246.8,228.9 246.2,229.2 	"/>
	
		<linearGradient id="SVGID_33_" gradientUnits="userSpaceOnUse" x1="314.8323" y1="213.8228" x2="223.2583" y2="159.4608" gradientTransform="matrix(1 0 0 -1 0 409.28)">
		<stop  offset="0" style="stop-color:#FFFFFF"/>
		<stop  offset="1" style="stop-color:#D5DC8F"/>
	</linearGradient>
	<polygon class="st44" points="255.7,230.9 255.1,230.6 254.6,230.9 253.9,230.5 253.4,230.8 252.9,231.1 252.3,231.4 252.9,231.8 
		253.6,232.2 254.2,232.5 254.7,232.2 254.1,231.9 253.5,231.5 254,231.2 254.7,231.6 255.2,231.2 255.8,231.6 256.4,231.3 	"/>
	
		<linearGradient id="SVGID_34_" gradientUnits="userSpaceOnUse" x1="313.05" y1="216.8229" x2="221.4806" y2="162.4609" gradientTransform="matrix(1 0 0 -1 0 409.28)">
		<stop  offset="0" style="stop-color:#FFFFFF"/>
		<stop  offset="1" style="stop-color:#D5DC8F"/>
	</linearGradient>
	<polygon class="st45" points="249.8,230 250.4,229.7 250.9,229.4 250.3,229 249.6,228.7 249.1,229 249.7,229.3 249.2,229.6 
		248.6,229.9 248.1,230.3 247.5,230.6 248.2,230.9 248.7,230.6 249.3,230.3 249.9,230.7 250.5,231 251.1,230.7 250.4,230.4 	"/>
	
		<linearGradient id="SVGID_35_" gradientUnits="userSpaceOnUse" x1="313.8694" y1="215.4448" x2="222.3001" y2="161.0781" gradientTransform="matrix(1 0 0 -1 0 409.28)">
		<stop  offset="0" style="stop-color:#FFFFFF"/>
		<stop  offset="1" style="stop-color:#D5DC8F"/>
	</linearGradient>
	<polygon class="st46" points="253.9,229.8 253.2,229.5 252.6,229.1 252.1,229.4 251.5,229.7 252.1,230.1 252.7,229.8 253.3,230.2 
		253.9,230.5 254.5,230.2 	"/>
	
		<linearGradient id="SVGID_36_" gradientUnits="userSpaceOnUse" x1="313.4689" y1="216.12" x2="221.8996" y2="161.7534" gradientTransform="matrix(1 0 0 -1 0 409.28)">
		<stop  offset="0" style="stop-color:#FFFFFF"/>
		<stop  offset="1" style="stop-color:#D5DC8F"/>
	</linearGradient>
	<polygon class="st47" points="245.6,233.8 245,233.5 244.4,233.8 245.1,234.1 	"/>
	
		<linearGradient id="SVGID_37_" gradientUnits="userSpaceOnUse" x1="312.5393" y1="217.685" x2="220.97" y2="163.3183" gradientTransform="matrix(1 0 0 -1 0 409.28)">
		<stop  offset="0" style="stop-color:#FFFFFF"/>
		<stop  offset="1" style="stop-color:#D5DC8F"/>
	</linearGradient>
	<polygon class="st48" points="246.4,230.5 247,230.9 247.5,230.6 246.9,230.2 	"/>
	
		<linearGradient id="SVGID_38_" gradientUnits="userSpaceOnUse" x1="313.3219" y1="216.3635" x2="221.7525" y2="162.0015" gradientTransform="matrix(1 0 0 -1 0 409.28)">
		<stop  offset="0" style="stop-color:#FFFFFF"/>
		<stop  offset="1" style="stop-color:#D5DC8F"/>
	</linearGradient>
	<path class="st49" d="M246.3,229.8l-0.6-0.4l-0.5,0.3l-0.6-0.4l-0.5,0.3l0.6,0.4l0.6,0.4l-0.5,0.3l-1.3-0.7l-0.5,0.3l-0.6-0.4
		l-0.5,0.3l0.6,0.4l0.5-0.3l0.6,0.4l-0.5,0.3l0.6,0.4l0.6,0.4l-0.5,0.3l-1.3-0.7l0.5-0.3l-0.6-0.4l-0.5,0.3l-0.5,0.3l0.6,0.4
		l-0.5,0.3l0.6,0.4l-0.5,0.3l0.6,0.4l0.5-0.3l0.5-0.3l0.6,0.4l-0.5,0.3l-0.5,0.3l-0.5,0.3l-1.3-0.7l0.5-0.3l-0.6-0.4l-0.5,0.3
		l-0.6-0.4l-0.5,0.3l-0.5,0.3l0.6,0.4l0.5-0.3l0.6,0.4l1.3,0.7l0.6,0.4l-0.5,0.3l0.6,0.4l0.5-0.3l0.6,0.4l0.5-0.3l0.6,0.4l-0.5,0.3
		l-0.6-0.4l-0.5,0.3l-0.5,0.3l-1.9-1.1l-0.5,0.3l0.6,0.4l1.3,0.7l0.6,0.4l0.6,0.4l0.6,0.4l0.5-0.3l-0.6-0.4l0.6-0.3l0.5-0.3l0.5-0.3
		l0.6,0.4l0.5-0.3l1.2,0.7l0.6,0.4l0.5-0.3l-0.6-0.4l0.5-0.3l0.6,0.4l0.5-0.3l0.5-0.3l-0.6-0.4l-0.6-0.4l-0.6-0.4l-0.5,0.3l0.6,0.4
		l0.6,0.4l-0.5,0.3l-0.6-0.4l-0.5,0.3l-0.6-0.4l0.5-0.3l-0.6-0.4l0.5-0.3l0.5-0.3l0.6,0.4l0.5-0.3l0.5-0.3l-0.6-0.4l-0.6-0.4
		l0.5-0.3l-0.6-0.4l-0.5,0.3l0.6,0.4l-0.5,0.3l-0.6-0.4l0.5-0.3l-0.6-0.4l-0.5,0.3l0.6,0.4l-0.5,0.3l-1.3-0.7l0.5-0.3l0.5-0.3
		l0.5-0.3l-0.6-0.4l-0.6,0.3l0,0l-0.5,0.3l-0.6-0.4l0.5-0.3l1.1-0.6l-0.6-0.4L246.3,229.8z M247.9,233.3l0.6,0.4l-0.5,0.3l-0.6-0.4
		L247.9,233.3z M244.9,232.8l1.3,0.7l0.6,0.4l-0.5,0.3l-0.5,0.3l-0.5,0.3l-0.6-0.4l-0.6-0.4l-0.6-0.4l0.5-0.3l0.5-0.3L244.9,232.8z"
		/>
	
		<linearGradient id="SVGID_39_" gradientUnits="userSpaceOnUse" x1="309.1219" y1="223.4381" x2="217.5526" y2="169.0715" gradientTransform="matrix(1 0 0 -1 0 409.28)">
		<stop  offset="0" style="stop-color:#FFFFFF"/>
		<stop  offset="1" style="stop-color:#D5DC8F"/>
	</linearGradient>
	<path class="st50" d="M240.5,230.2l-0.6-0.4l0.5-0.3l-0.6-0.4l0.5-0.3l-0.6-0.4l-0.6-0.4l-0.6-0.4l0.5-0.3l-0.6-0.4l0.5-0.3
		l0.6,0.4l-0.5,0.3l0.6,0.4l0.6,0.4l0.5-0.3l0.6,0.4l0.5-0.3l-1.3-0.7l0.5-0.3l-0.6-0.4l0.5-0.3l0.5-0.3l1.1-0.6l-0.6-0.4l-0.5,0.3
		l-0.6-0.4l-0.6-0.4l0.5-0.3l0.6,0.4l0.5-0.3l-0.6-0.4l0.5-0.3l0.6,0.4l0.6,0.4l0.5-0.3l-0.6-0.4l-0.6-0.4l-0.5,0.3l-0.6-0.4
		l-0.5,0.3l0.6,0.4l-0.5,0.3l-0.6-0.4l0.5-0.3l-0.6-0.4l0.5-0.3l0.5-0.3l-0.6-0.4l-0.5,0.3l-0.5,0.3l-0.5,0.3l0.6,0.4l-0.5,0.3
		l0.6,0.4l-0.5,0.3l0.6,0.4l1.3,0.7l-0.5,0.3l-0.5,0.3l0.6,0.4l-0.5,0.3l-1.3-0.7l-0.6-0.4l0.5-0.3l0.6,0.4l0.5-0.3l-0.6-0.4
		l-0.6-0.4l-0.6-0.4l-0.5,0.3l0.6,0.4l-0.5,0.3l0.6,0.4l-0.5,0.3l0.6,0.4l-0.5,0.3l-0.6-0.4l0.5-0.3l-1.3-0.7l-0.5,0.3l-0.6-0.4
		l0.5-0.3l-0.6-0.4l-0.5,0.3l-0.5,0.3l1.3,0.7l-0.5,0.3l-0.5,0.3l0.6,0.4l0.6,0.4l0.6,0.4l0.6,0.4l-0.5,0.3l-0.5,0.3l0.6,0.4
		l-0.5,0.3l-0.5,0.3l0.6,0.4l0.5-0.3l0.5-0.3l0.6,0.4l-0.5,0.3l-0.5,0.3l-0.6-0.4l-0.5,0.3l-0.6-0.4l-0.5,0.3l-0.6-0.4l-0.5,0.3
		l-0.5,0.3l1.9,1.1l0.5-0.3l0.6,0.4l-0.5,0.3l0.6,0.4l0.6,0.4l0.5-0.3l-0.6-0.4l-0.6-0.4l0.5-0.3l0.5-0.3l0.5-0.3l0.5-0.3l0.6,0.4
		l0.6,0.4l-0.5,0.3l0.6,0.4l0.6,0.4l0.5-0.3l0.5-0.3l-0.6-0.4l-0.5,0.3l-0.6-0.4l0.5-0.3l0.6,0.4l0.5-0.3l0.5-0.3l0.5-0.3l-0.6-0.4
		L240.5,230.2z M234.2,231l-0.6-0.4l0.5-0.3l0.6,0.4L234.2,231z M236.7,227.4L236,227l0.5-0.3l0.6,0.4l0.6,0.4l-0.5,0.3L236.7,227.4
		z M238,228.8l-0.6-0.4l0.5-0.3l0.6,0.4L238,228.8z"/>
	
		<linearGradient id="SVGID_40_" gradientUnits="userSpaceOnUse" x1="309.6706" y1="222.5129" x2="218.1012" y2="168.1509" gradientTransform="matrix(1 0 0 -1 0 409.28)">
		<stop  offset="0" style="stop-color:#FFFFFF"/>
		<stop  offset="1" style="stop-color:#D5DC8F"/>
	</linearGradient>
	<polygon class="st51" points="244,225.4 243.4,225 242.8,225.3 243.5,225.7 244.1,226.1 244.6,225.7 245.3,226.1 245.8,225.8 
		245.2,225.4 245.7,225.1 245.1,224.8 244.6,225.1 	"/>
	
		<linearGradient id="SVGID_41_" gradientUnits="userSpaceOnUse" x1="314.5482" y1="214.298" x2="222.9788" y2="159.936" gradientTransform="matrix(1 0 0 -1 0 409.28)">
		<stop  offset="0" style="stop-color:#FFFFFF"/>
		<stop  offset="1" style="stop-color:#D5DC8F"/>
	</linearGradient>
	<polygon class="st52" points="257.8,228.3 257.1,228 256,228.6 255.5,228.9 256.1,229.3 256.8,229.6 257.4,230 257.9,229.7 
		258.5,229.4 259,229.1 258.4,228.7 	"/>
	
		<linearGradient id="SVGID_42_" gradientUnits="userSpaceOnUse" x1="311.3205" y1="219.7397" x2="219.7465" y2="165.3777" gradientTransform="matrix(1 0 0 -1 0 409.28)">
		<stop  offset="0" style="stop-color:#FFFFFF"/>
		<stop  offset="1" style="stop-color:#D5DC8F"/>
	</linearGradient>
	<path class="st53" d="M246.3,224.8l0.5-0.3l0.6,0.4l-0.5,0.3l-0.5,0.3l0.6,0.4l0.5-0.3l0.5-0.3l0.6,0.4l-0.5,0.3l-0.5,0.3l-0.5,0.3
		l0.6,0.4l0.6,0.4l0.5-0.3l0.6,0.4l0.6,0.4l1.3,0.7l-0.5,0.3l0.6,0.4l0.5-0.3l0.5-0.3l0.5-0.3l-0.6-0.4l-0.5,0.3l-0.6-0.4l0.5-0.3
		l0.6,0.4l0.5-0.3l0.5-0.3l0.6,0.4l0.5-0.3l0.5-0.3l-0.6-0.4l-0.6-0.4l-0.5,0.3l-0.6-0.4l0.4-0.2l0.2-0.1l0,0l0.5-0.3l-0.6-0.4
		l-1.1,0.6l0,0l-0.6-0.4l0.4-0.2l0.2-0.1l0,0l0.5-0.3l0.6,0.4l0.5-0.3l-0.6-0.4l-0.6-0.4l-0.5,0.3l-0.6-0.4l-1.1,0.6l0.6,0.4l0,0
		l-0.6-0.4l-0.5,0.3l0.6,0.4l-0.5,0.3l-0.6-0.4l-0.6-0.4l-0.5,0.3l-0.6-0.4l0.5-0.3l-0.6-0.4l-0.5,0.3l-0.6-0.4l-0.5,0.3
		L246.3,224.8z M250.6,226.7l0.5-0.3l0.5-0.3l0.6,0.4l0.6,0.4l-0.5,0.3l-0.6-0.4l-0.5,0.3l-0.5,0.3L250,227L250.6,226.7z M249.3,226
		l0.6,0.4l-0.5,0.3l-0.6-0.4L249.3,226z"/>
	
		<linearGradient id="SVGID_43_" gradientUnits="userSpaceOnUse" x1="314.5453" y1="214.3028" x2="222.9759" y2="159.9408" gradientTransform="matrix(1 0 0 -1 0 409.28)">
		<stop  offset="0" style="stop-color:#FFFFFF"/>
		<stop  offset="1" style="stop-color:#D5DC8F"/>
	</linearGradient>
	<path class="st54" d="M260.1,228.4l-1.9-1.1l-0.6-0.4l-0.6-0.4l-0.5,0.3l-0.5,0.3l-0.2,0.1l-0.4,0.2l0,0l-0.6,0.3l-0.5,0.3
		l-0.5,0.3l-0.5,0.3l0.6,0.4l0.6,0.4l1.3,0.7l0.6,0.4l0.6,0.4l0.6,0.4l0.5-0.3l0.5-0.3l0.5-0.3l0.5-0.3l0,0l0.5-0.3l0.5-0.3l0.5-0.3
		l-0.6-0.4L260.1,228.4z M259.6,229.4l-0.2,0.1l-0.4,0.2l0,0l-0.5,0.3l-0.5,0.3l-0.5,0.3l-0.6-0.4l-0.6-0.4l-0.6-0.4l-0.6-0.4
		l-0.6-0.4l0.5-0.3l0.5-0.3l0.5-0.3l0,0l0.5-0.3l0.5-0.3l0.6,0.4l1.9,1.1l0.6,0.4L259.6,229.4z"/>
	
		<linearGradient id="SVGID_44_" gradientUnits="userSpaceOnUse" x1="309.4048" y1="222.9605" x2="217.8354" y2="168.5939" gradientTransform="matrix(1 0 0 -1 0 409.28)">
		<stop  offset="0" style="stop-color:#FFFFFF"/>
		<stop  offset="1" style="stop-color:#D5DC8F"/>
	</linearGradient>
	<polygon class="st55" points="249.5,222.3 248.8,221.9 248.3,222.2 248.9,222.6 	"/>
	
		<linearGradient id="SVGID_45_" gradientUnits="userSpaceOnUse" x1="309.7211" y1="222.4302" x2="218.1518" y2="168.0635" gradientTransform="matrix(1 0 0 -1 0 409.28)">
		<stop  offset="0" style="stop-color:#FFFFFF"/>
		<stop  offset="1" style="stop-color:#D5DC8F"/>
	</linearGradient>
	<polygon class="st56" points="247.9,223.9 248.5,224.2 249.1,223.9 249.7,224.3 249.7,224.3 250.2,224 250.8,223.7 251.3,223.4 
		250.7,223 250.2,223.3 249.5,223 249,223.3 248.4,222.9 247.7,222.5 248.3,222.2 247.7,221.9 247.1,222.2 247,222.3 246.6,222.5 
		246.6,222.5 247.2,222.8 246.7,223.2 247.3,223.5 	"/>
	
		<linearGradient id="SVGID_46_" gradientUnits="userSpaceOnUse" x1="310.7011" y1="220.7781" x2="219.1318" y2="166.4161" gradientTransform="matrix(1 0 0 -1 0 409.28)">
		<stop  offset="0" style="stop-color:#FFFFFF"/>
		<stop  offset="1" style="stop-color:#D5DC8F"/>
	</linearGradient>
	<polygon class="st57" points="237.2,231.4 236.6,231.7 237.2,232.1 237.9,232.5 238.4,232.2 237.8,231.8 238.3,231.5 237.7,231.1 	
		"/>
	
		<linearGradient id="SVGID_47_" gradientUnits="userSpaceOnUse" x1="306.7593" y1="227.4209" x2="215.19" y2="173.0589" gradientTransform="matrix(1 0 0 -1 0 409.28)">
		<stop  offset="0" style="stop-color:#FFFFFF"/>
		<stop  offset="1" style="stop-color:#D5DC8F"/>
	</linearGradient>
	<polygon class="st58" points="238,223.8 238.5,223.5 239.1,223.2 238.4,222.8 239,222.5 238.4,222.1 238.9,221.8 239.5,222.2 
		240.1,221.9 239.5,221.5 238.8,221.1 238.3,221.4 237.7,221.8 237.2,222.1 236.6,222.4 236.1,222.7 236.7,223.1 236.2,223.4 
		236.8,223.7 237.4,223.4 	"/>
	
		<linearGradient id="SVGID_48_" gradientUnits="userSpaceOnUse" x1="311.2822" y1="219.8035" x2="219.7082" y2="165.4415" gradientTransform="matrix(1 0 0 -1 0 409.28)">
		<stop  offset="0" style="stop-color:#FFFFFF"/>
		<stop  offset="1" style="stop-color:#D5DC8F"/>
	</linearGradient>
	<polygon class="st59" points="247.8,228.2 248.5,228.6 249,228.3 248.4,227.9 247.8,228.2 246.6,227.5 246,227.1 246.5,226.8 
		245.9,226.5 245.3,226.8 244.8,227.1 245.4,227.5 246,227.8 245.5,228.1 244.9,227.8 244.3,228.1 244.9,228.4 245.6,228.8 
		246.1,228.5 246.8,228.9 247.3,228.5 	"/>
	
		<linearGradient id="SVGID_49_" gradientUnits="userSpaceOnUse" x1="309.2101" y1="223.2896" x2="217.6408" y2="168.9276" gradientTransform="matrix(1 0 0 -1 0 409.28)">
		<stop  offset="0" style="stop-color:#FFFFFF"/>
		<stop  offset="1" style="stop-color:#D5DC8F"/>
	</linearGradient>
	<polygon class="st60" points="245.6,224.5 245,224.1 245.6,223.8 246.2,224.1 246.7,223.8 246.1,223.5 246.7,223.2 246,222.8 
		245.5,223.1 244.9,223.4 244.4,223.7 243.8,224 245.1,224.8 	"/>
	
		<linearGradient id="SVGID_50_" gradientUnits="userSpaceOnUse" x1="310.7537" y1="220.6921" x2="219.1843" y2="166.3301" gradientTransform="matrix(1 0 0 -1 0 409.28)">
		<stop  offset="0" style="stop-color:#FFFFFF"/>
		<stop  offset="1" style="stop-color:#D5DC8F"/>
	</linearGradient>
	<polygon class="st61" points="242.1,228.6 241.5,229 241,229.3 241.6,229.6 242.1,229.3 242.8,229.7 243.3,229.4 242.7,229 	"/>
</g>
</svg>
