<?xml version="1.0" encoding="UTF-8"?>
<svg width="31px" height="48px" viewBox="0 0 31 48" version="1.1" xmlns="http://www.w3.org/2000/svg" xmlns:xlink="http://www.w3.org/1999/xlink">
    <!-- Generator: Sketch 51.2 (57519) - http://www.bohemiancoding.com/sketch -->
    <title>资源 3</title>
    <desc>Created with Sketch.</desc>
    <defs></defs>
    <g id="发票区块链联盟v1.0" stroke="none" stroke-width="1" fill="none" fill-rule="evenodd">
        <g id="登陆页" transform="translate(-280.000000, -16.000000)" fill="#FFFFFF" fill-rule="nonzero">
            <g id="页眉">
                <g id="logo" transform="translate(280.000000, 16.000000)">
                    <g id="资源-3">
                        <path d="M12.9417476,45.0909091 L9.02912621,45.0909091 L9.02912621,41.6442802 L9.02912621,40.1454545 L10.0002997,40.1454545 L20.6566009,40.1454545 L21.6699029,40.1454545 L21.6699029,41.7068243 L21.6699029,45.0909091 L18.0582524,45.0909091 L18.0582524,48 L12.9417476,48 L12.9417476,45.0909091 Z M28.9900532,13.7483802 C30.0984647,13.7541541 30.9951762,14.6123194 31,15.6719272 L31,15.8448777 C30.9551737,16.5766456 30.8534021,17.3042061 30.6955295,18.021523 C30.6646411,18.1586179 30.6315465,18.2936037 30.5984519,18.4285894 C29.8922508,21.1615886 28.3834173,23.6446093 26.2498184,25.5849437 L26.2917382,25.5849437 C24.4560846,27.4399873 23.3935585,29.8728056 23.3043968,32.4249251 C23.3043968,32.5092912 23.3043968,33.0492342 23.3043968,33.393026 C23.3043968,33.4035718 23.2227634,33.4035718 23.2227634,33.4035718 L23.3043968,33.4373182 L23.3043968,38.1090909 L7.83376344,38.1090909 L7.83376344,33.4373182 L7.86023913,33.2242938 C7.86023913,33.0703257 7.86023913,32.8952661 7.86023913,32.7876993 C7.86405651,29.9374862 6.65314347,27.2087726 4.5066506,25.2306061 L4.54195154,25.2453701 C0.539627567,21.4283093 -0.964370451,15.8273773 0.619860203,10.6393887 C2.20409086,5.45140014 6.62393933,1.50359714 12.1458391,0.344399137 C17.6677388,-0.81479887 23.4112045,0.999446096 27.1235164,5.0755453 C27.7431395,5.63415319 27.9767943,6.48086156 27.7260461,7.25896667 C27.4752978,8.03707177 26.7837374,8.61130557 25.9427072,8.73975319 C25.1016771,8.86820081 24.2573844,8.52853255 23.7655153,7.86384483 C23.8327422,7.95639139 23.9064548,8.04447468 23.9861461,8.12748889 C20.74785,4.44927205 15.3132499,3.33750517 10.7839068,5.42668075 C6.25456366,7.51585633 3.78287802,12.2744256 4.77945671,16.9866425 C5.77603541,21.6988595 9.987319,25.1657951 15.0099009,25.408847 C20.0324828,25.6518989 24.5884679,22.6092274 26.0777263,18.0173047 L15.3219736,18.0173047 L15.2668159,18.0173047 C14.0758527,17.9666036 13.1375813,17.0288168 13.1375813,15.8891699 C13.1375813,14.749523 14.0758527,13.8117361 15.2668159,13.7610351 L15.2668159,13.7483802 L28.9900532,13.7483802 Z M18.8410353,33.4373182 C18.83221,33.226403 18.8233848,33.0028328 18.8366226,32.7940267 C18.8352353,31.6044714 18.9833846,30.4190666 19.2778843,29.2633056 C16.8515005,29.8313978 14.3175481,29.8313978 11.8911643,29.2633056 C12.1867437,30.4188797 12.3349086,31.6044099 12.3324259,32.7940267 C12.3324259,33.0154878 12.3147755,33.226403 12.3147755,33.4373182 L18.8410353,33.4373182 Z" id="Combined-Shape"></path>
                    </g>
                </g>
            </g>
        </g>
    </g>
</svg>