<?xml version="1.0" encoding="utf-8"?>
<!-- Generator: Adobe Illustrator 21.1.0, SVG Export Plug-In . SVG Version: 6.00 Build 0)  -->
<svg version="1.1" id="图层_1" xmlns="http://www.w3.org/2000/svg" xmlns:xlink="http://www.w3.org/1999/xlink" x="0px" y="0px"
	 viewBox="0 0 54 54" style="enable-background:new 0 0 54 54;" xml:space="preserve">
<style type="text/css">
	.st0{fill:#60D564;}
</style>
<title>ic_首页发票数</title>
<desc>Created with Sketch.</desc>
<g>
	<path class="st0" d="M22.1,22h7.8c0.6,0,1.1-0.5,1.1-1c0-0.5-0.5-1-1.1-1h-7.8c-0.6,0-1.1,0.5-1.1,1S21.5,22,22.1,22z"/>
	<path class="st0" d="M32.8,26H22.2c-0.6,0-1.2,0.5-1.2,1s0.6,1,1.2,1h10.6c0.7,0,1.2-0.5,1.2-1S33.4,26,32.8,26z"/>
	<path class="st0" d="M27,0C12.1,0,0,12.1,0,27s12.1,27,27,27s27-12.1,27-27S41.9,0,27,0z M38,39.8c0,0.5-0.3,1-0.8,1.1
		c-0.5,0.2-0.9,0.1-1.2-0.3l-2.4-2.7l-2.5,2.7c-0.5,0.5-1.2,0.5-1.7,0L27,37.9l-2.4,2.7c-0.2,0.2-0.5,0.4-0.9,0.4s-0.6-0.2-0.9-0.4
		l-2.4-2.7l-2.4,2.7c-0.3,0.2-0.6,0.4-0.9,0.4c-0.2,0-0.3,0-0.4-0.1c-0.5-0.2-0.8-0.6-0.8-1.1V15.2c0-0.6,0.5-1.2,1.2-1.2h19.7
		c0.6,0,1.2,0.6,1.2,1.2V39.8z"/>
</g>
</svg>
