<?xml version="1.0" encoding="UTF-8"?>
<svg width="54px" height="54px" viewBox="0 0 54 54" version="1.1" xmlns="http://www.w3.org/2000/svg" xmlns:xlink="http://www.w3.org/1999/xlink">
    <!-- Generator: Sketch 48.1 (47250) - http://www.bohemiancoding.com/sketch -->
    <title>ic_首页发票数_库存</title>
    <desc>Created with Sketch.</desc>
    <defs></defs>
    <g id="首页_开通完成_数据展示" stroke="none" stroke-width="1" fill="none" fill-rule="evenodd" transform="translate(-906.000000, -386.000000)">
        <g id="Group-2" fill="#FCBA2C" fill-rule="nonzero">
            <g id="ic_首页发票数_库存" transform="translate(906.000000, 386.000000)">
                <path d="M22.1,22 L29.9,22 C30.5,22 31,21.5 31,21 C31,20.5 30.5,20 29.9,20 L22.1,20 C21.5,20 21,20.5 21,21 C21,21.5 21.5,22 22.1,22 Z" id="Shape"></path>
                <path d="M32.8,26 L22.2,26 C21.6,26 21,26.5 21,27 C21,27.5 21.6,28 22.2,28 L32.8,28 C33.5,28 34,27.5 34,27 C34,26.5 33.4,26 32.8,26 Z" id="Shape"></path>
                <path d="M27,0 C12.1,0 0,12.1 0,27 C0,41.9 12.1,54 27,54 C41.9,54 54,41.9 54,27 C54,12.1 41.9,0 27,0 Z M38,39.8 C38,40.3 37.7,40.8 37.2,40.9 C36.7,41.1 36.3,41 36,40.6 L33.6,37.9 L31.1,40.6 C30.6,41.1 29.9,41.1 29.4,40.6 L27,37.9 L24.6,40.6 C24.4,40.8 24.1,41 23.7,41 C23.3,41 23.1,40.8 22.8,40.6 L20.4,37.9 L18,40.6 C17.7,40.8 17.4,41 17.1,41 C16.9,41 16.8,41 16.7,40.9 C16.2,40.7 15.9,40.3 15.9,39.8 L15.9,15.2 C15.9,14.6 16.4,14 17.1,14 L36.8,14 C37.4,14 38,14.6 38,15.2 L38,39.8 Z" id="Shape"></path>
            </g>
        </g>
    </g>
</svg>